<?xml version="1.0" encoding="UTF-8"?><svg xmlns="http://www.w3.org/2000/svg" xmlns:xlink="http://www.w3.org/1999/xlink" contentScriptType="application/ecmascript" contentStyleType="text/css" height="734px" preserveAspectRatio="none" style="width:1250px;height:734px;" version="1.1" viewBox="0 0 1250 734" width="1250px" zoomAndPan="magnify">
    <defs>
        <filter height="300%" id="f9vbod4rjqivs" width="300%" x="-1" y="-1">
            <feGaussianBlur result="blurOut" stdDeviation="2.0"/>
            <feColorMatrix in="blurOut" result="blurOut2" type="matrix" values="0 0 0 0 0 0 0 0 0 0 0 0 0 0 0 0 0 0 .4 0"/>
            <feOffset dx="4.0" dy="4.0" in="blurOut2" result="blurOut3"/>
            <feBlend in="SourceGraphic" in2="blurOut3" mode="normal"/>
        </filter>
    </defs>
    <g>
        <text fill="#000000" font-family="sans-serif" font-size="14" font-weight="bold" lengthAdjust="spacingAndGlyphs" textLength="193" x="535" y="24.5332">Create BoM with inclination</text>
        <line style="stroke: #A80036; stroke-width: 1.0; stroke-dasharray: 5.0,5.0;" x1="74" x2="74" y1="98.2188" y2="664.5469"/>
        <line style="stroke: #A80036; stroke-width: 1.0; stroke-dasharray: 5.0,5.0;" x1="207" x2="207" y1="98.2188" y2="664.5469"/>
        <line style="stroke: #A80036; stroke-width: 1.0; stroke-dasharray: 5.0,5.0;" x1="325" x2="325" y1="98.2188" y2="664.5469"/>
        <line style="stroke: #A80036; stroke-width: 1.0; stroke-dasharray: 5.0,5.0;" x1="429" x2="429" y1="98.2188" y2="664.5469"/>
        <line style="stroke: #A80036; stroke-width: 1.0; stroke-dasharray: 5.0,5.0;" x1="526" x2="526" y1="98.2188" y2="664.5469"/>
        <line style="stroke: #A80036; stroke-width: 1.0; stroke-dasharray: 5.0,5.0;" x1="625.5" x2="625.5" y1="98.2188" y2="664.5469"/>
        <line style="stroke: #A80036; stroke-width: 1.0; stroke-dasharray: 5.0,5.0;" x1="704.5" x2="704.5" y1="98.2188" y2="664.5469"/>
        <line style="stroke: #A80036; stroke-width: 1.0; stroke-dasharray: 5.0,5.0;" x1="835.5" x2="835.5" y1="98.2188" y2="664.5469"/>
        <line style="stroke: #A80036; stroke-width: 1.0; stroke-dasharray: 5.0,5.0;" x1="981.5" x2="981.5" y1="98.2188" y2="664.5469"/>
        <line style="stroke: #A80036; stroke-width: 1.0; stroke-dasharray: 5.0,5.0;" x1="1108.5" x2="1108.5" y1="98.2188" y2="664.5469"/>
        <line style="stroke: #A80036; stroke-width: 1.0; stroke-dasharray: 5.0,5.0;" x1="1221" x2="1221" y1="98.2188" y2="664.5469"/>
        <text fill="#000000" font-family="sans-serif" font-size="14" lengthAdjust="spacingAndGlyphs" textLength="126" x="8" y="95.1426">orderinformation.jsp</text>
        <path d="M53.5,52.6094 L53.5,76.6094 M53.5,64.6094 L70.5,64.6094 " fill="#FEFECE" filter="url(#f9vbod4rjqivs)" style="stroke: #A80036; stroke-width: 2.0;"/>
        <ellipse cx="82.5" cy="64.6094" fill="#FEFECE" filter="url(#f9vbod4rjqivs)" rx="12" ry="12" style="stroke: #A80036; stroke-width: 2.0;"/>
        <text fill="#000000" font-family="sans-serif" font-size="14" lengthAdjust="spacingAndGlyphs" textLength="126" x="8" y="678.0801">orderinformation.jsp</text>
        <path d="M53.5,685.1563 L53.5,709.1563 M53.5,697.1563 L70.5,697.1563 " fill="#FEFECE" filter="url(#f9vbod4rjqivs)" style="stroke: #A80036; stroke-width: 2.0;"/>
        <ellipse cx="82.5" cy="697.1563" fill="#FEFECE" filter="url(#f9vbod4rjqivs)" rx="12" ry="12" style="stroke: #A80036; stroke-width: 2.0;"/>
        <text fill="#000000" font-family="sans-serif" font-size="14" lengthAdjust="spacingAndGlyphs" textLength="108" x="150" y="95.1426">billofmaterials.jsp</text>
        <path d="M186.5,52.6094 L186.5,76.6094 M186.5,64.6094 L203.5,64.6094 " fill="#FEFECE" filter="url(#f9vbod4rjqivs)" style="stroke: #A80036; stroke-width: 2.0;"/>
        <ellipse cx="215.5" cy="64.6094" fill="#FEFECE" filter="url(#f9vbod4rjqivs)" rx="12" ry="12" style="stroke: #A80036; stroke-width: 2.0;"/>
        <text fill="#000000" font-family="sans-serif" font-size="14" lengthAdjust="spacingAndGlyphs" textLength="108" x="150" y="678.0801">billofmaterials.jsp</text>
        <path d="M186.5,685.1563 L186.5,709.1563 M186.5,697.1563 L203.5,697.1563 " fill="#FEFECE" filter="url(#f9vbod4rjqivs)" style="stroke: #A80036; stroke-width: 2.0;"/>
        <ellipse cx="215.5" cy="697.1563" fill="#FEFECE" filter="url(#f9vbod4rjqivs)" rx="12" ry="12" style="stroke: #A80036; stroke-width: 2.0;"/>
        <text fill="#000000" font-family="sans-serif" font-size="14" lengthAdjust="spacingAndGlyphs" textLength="96" x="274" y="95.1426">FrontController</text>
        <ellipse cx="325" cy="64.6094" fill="#FEFECE" filter="url(#f9vbod4rjqivs)" rx="12" ry="12" style="stroke: #A80036; stroke-width: 2.0;"/>
        <polygon fill="#A80036" points="321,52.6094,327,47.6094,325,52.6094,327,57.6094,321,52.6094" style="stroke: #A80036; stroke-width: 1.0;"/>
        <text fill="#000000" font-family="sans-serif" font-size="14" lengthAdjust="spacingAndGlyphs" textLength="96" x="274" y="678.0801">FrontController</text>
        <ellipse cx="325" cy="697.1563" fill="#FEFECE" filter="url(#f9vbod4rjqivs)" rx="12" ry="12" style="stroke: #A80036; stroke-width: 2.0;"/>
        <polygon fill="#A80036" points="321,685.1563,327,680.1563,325,685.1563,327,690.1563,321,685.1563" style="stroke: #A80036; stroke-width: 1.0;"/>
        <rect fill="#FEFECE" filter="url(#f9vbod4rjqivs)" height="31.6094" style="stroke: #A80036; stroke-width: 1.5;" width="78" x="390" y="57.6094"/>
        <rect fill="#FEFECE" filter="url(#f9vbod4rjqivs)" height="31.6094" style="stroke: #A80036; stroke-width: 1.5;" width="78" x="386" y="61.6094"/>
        <text fill="#000000" font-family="sans-serif" font-size="14" lengthAdjust="spacingAndGlyphs" textLength="64" x="393" y="83.1426">Command</text>
        <rect fill="#FEFECE" filter="url(#f9vbod4rjqivs)" height="31.6094" style="stroke: #A80036; stroke-width: 1.5;" width="78" x="390" y="663.5469"/>
        <rect fill="#FEFECE" filter="url(#f9vbod4rjqivs)" height="31.6094" style="stroke: #A80036; stroke-width: 1.5;" width="78" x="386" y="667.5469"/>
        <text fill="#000000" font-family="sans-serif" font-size="14" lengthAdjust="spacingAndGlyphs" textLength="64" x="393" y="689.0801">Command</text>
        <rect fill="#FEFECE" filter="url(#f9vbod4rjqivs)" height="31.6094" style="stroke: #A80036; stroke-width: 1.5;" width="85" x="482" y="61.6094"/>
        <text fill="#000000" font-family="sans-serif" font-size="14" lengthAdjust="spacingAndGlyphs" textLength="71" x="489" y="83.1426">CreateBoM</text>
        <rect fill="#FEFECE" filter="url(#f9vbod4rjqivs)" height="31.6094" style="stroke: #A80036; stroke-width: 1.5;" width="85" x="482" y="663.5469"/>
        <text fill="#000000" font-family="sans-serif" font-size="14" lengthAdjust="spacingAndGlyphs" textLength="71" x="489" y="685.0801">CreateBoM</text>
        <rect fill="#FEFECE" filter="url(#f9vbod4rjqivs)" height="31.6094" style="stroke: #A80036; stroke-width: 1.5;" width="64" x="591.5" y="61.6094"/>
        <text fill="#000000" font-family="sans-serif" font-size="14" lengthAdjust="spacingAndGlyphs" textLength="50" x="598.5" y="83.1426">Session</text>
        <rect fill="#FEFECE" filter="url(#f9vbod4rjqivs)" height="31.6094" style="stroke: #A80036; stroke-width: 1.5;" width="64" x="591.5" y="663.5469"/>
        <text fill="#000000" font-family="sans-serif" font-size="14" lengthAdjust="spacingAndGlyphs" textLength="50" x="598.5" y="685.0801">Session</text>
        <rect fill="#FEFECE" filter="url(#f9vbod4rjqivs)" height="31.6094" style="stroke: #A80036; stroke-width: 1.5;" width="67" x="669.5" y="61.6094"/>
        <text fill="#000000" font-family="sans-serif" font-size="14" lengthAdjust="spacingAndGlyphs" textLength="53" x="676.5" y="83.1426">LineItem</text>
        <rect fill="#FEFECE" filter="url(#f9vbod4rjqivs)" height="31.6094" style="stroke: #A80036; stroke-width: 1.5;" width="67" x="669.5" y="663.5469"/>
        <text fill="#000000" font-family="sans-serif" font-size="14" lengthAdjust="spacingAndGlyphs" textLength="53" x="676.5" y="685.0801">LineItem</text>
        <rect fill="#FEFECE" filter="url(#f9vbod4rjqivs)" height="31.6094" style="stroke: #A80036; stroke-width: 1.5;" width="167" x="750.5" y="61.6094"/>
        <text fill="#000000" font-family="sans-serif" font-size="14" lengthAdjust="spacingAndGlyphs" textLength="153" x="757.5" y="83.1426">BillOfMaterialsInclination</text>
        <rect fill="#FEFECE" filter="url(#f9vbod4rjqivs)" height="31.6094" style="stroke: #A80036; stroke-width: 1.5;" width="167" x="750.5" y="663.5469"/>
        <text fill="#000000" font-family="sans-serif" font-size="14" lengthAdjust="spacingAndGlyphs" textLength="153" x="757.5" y="685.0801">BillOfMaterialsInclination</text>
        <rect fill="#FEFECE" filter="url(#f9vbod4rjqivs)" height="31.6094" style="stroke: #A80036; stroke-width: 1.5;" width="96" x="931.5" y="61.6094"/>
        <text fill="#000000" font-family="sans-serif" font-size="14" lengthAdjust="spacingAndGlyphs" textLength="82" x="938.5" y="83.1426">LogicFacade</text>
        <rect fill="#FEFECE" filter="url(#f9vbod4rjqivs)" height="31.6094" style="stroke: #A80036; stroke-width: 1.5;" width="96" x="931.5" y="663.5469"/>
        <text fill="#000000" font-family="sans-serif" font-size="14" lengthAdjust="spacingAndGlyphs" textLength="82" x="938.5" y="685.0801">LogicFacade</text>
        <rect fill="#FEFECE" filter="url(#f9vbod4rjqivs)" height="31.6094" style="stroke: #A80036; stroke-width: 1.5;" width="130" x="1041.5" y="61.6094"/>
        <text fill="#000000" font-family="sans-serif" font-size="14" lengthAdjust="spacingAndGlyphs" textLength="116" x="1048.5" y="83.1426">DataAccessObject</text>
        <rect fill="#FEFECE" filter="url(#f9vbod4rjqivs)" height="31.6094" style="stroke: #A80036; stroke-width: 1.5;" width="130" x="1041.5" y="663.5469"/>
        <text fill="#000000" font-family="sans-serif" font-size="14" lengthAdjust="spacingAndGlyphs" textLength="116" x="1048.5" y="685.0801">DataAccessObject</text>
        <text fill="#000000" font-family="sans-serif" font-size="14" lengthAdjust="spacingAndGlyphs" textLength="61" x="1188" y="95.1426">Database</text>
        <path d="M1203.5,44.6094 C1203.5,34.6094 1221.5,34.6094 1221.5,34.6094 C1221.5,34.6094 1239.5,34.6094 1239.5,44.6094 L1239.5,70.6094 C1239.5,80.6094 1221.5,80.6094 1221.5,80.6094 C1221.5,80.6094 1203.5,80.6094 1203.5,70.6094 L1203.5,44.6094 " fill="#FEFECE" filter="url(#f9vbod4rjqivs)" style="stroke: #000000; stroke-width: 1.5;"/>
        <path d="M1203.5,44.6094 C1203.5,54.6094 1221.5,54.6094 1221.5,54.6094 C1221.5,54.6094 1239.5,54.6094 1239.5,44.6094 " fill="none" style="stroke: #000000; stroke-width: 1.5;"/>
        <text fill="#000000" font-family="sans-serif" font-size="14" lengthAdjust="spacingAndGlyphs" textLength="61" x="1188" y="678.0801">Database</text>
        <path d="M1203.5,691.1563 C1203.5,681.1563 1221.5,681.1563 1221.5,681.1563 C1221.5,681.1563 1239.5,681.1563 1239.5,691.1563 L1239.5,717.1563 C1239.5,727.1563 1221.5,727.1563 1221.5,727.1563 C1221.5,727.1563 1203.5,727.1563 1203.5,717.1563 L1203.5,691.1563 " fill="#FEFECE" filter="url(#f9vbod4rjqivs)" style="stroke: #000000; stroke-width: 1.5;"/>
        <path d="M1203.5,691.1563 C1203.5,701.1563 1221.5,701.1563 1221.5,701.1563 C1221.5,701.1563 1239.5,701.1563 1239.5,691.1563 " fill="none" style="stroke: #000000; stroke-width: 1.5;"/>
        <polygon fill="#A80036" points="313,126.2188,323,130.2188,313,134.2188,317,130.2188" style="stroke: #A80036; stroke-width: 1.0;"/>
        <line style="stroke: #A80036; stroke-width: 1.0;" x1="74" x2="319" y1="130.2188" y2="130.2188"/>
        <text fill="#000000" font-family="sans-serif" font-size="13" lengthAdjust="spacingAndGlyphs" textLength="70" x="81" y="125.7139">Submit form</text>
        <polygon fill="#A80036" points="417,156.5703,427,160.5703,417,164.5703,421,160.5703" style="stroke: #A80036; stroke-width: 1.0;"/>
        <line style="stroke: #A80036; stroke-width: 1.0;" x1="325" x2="423" y1="160.5703" y2="160.5703"/>
        <text fill="#000000" font-family="sans-serif" font-size="13" lengthAdjust="spacingAndGlyphs" textLength="33" x="332" y="156.0654">from()</text>
        <polygon fill="#A80036" points="514.5,186.9219,524.5,190.9219,514.5,194.9219,518.5,190.9219" style="stroke: #A80036; stroke-width: 1.0;"/>
        <line style="stroke: #A80036; stroke-width: 1.0;" x1="325" x2="520.5" y1="190.9219" y2="190.9219"/>
        <text fill="#000000" font-family="sans-serif" font-size="13" lengthAdjust="spacingAndGlyphs" textLength="54" x="332" y="186.417">execute()</text>
        <polygon fill="#A80036" points="613.5,217.2734,623.5,221.2734,613.5,225.2734,617.5,221.2734" style="stroke: #A80036; stroke-width: 1.0;"/>
        <line style="stroke: #A80036; stroke-width: 1.0;" x1="526.5" x2="619.5" y1="221.2734" y2="221.2734"/>
        <text fill="#000000" font-family="sans-serif" font-size="13" lengthAdjust="spacingAndGlyphs" textLength="75" x="533.5" y="216.7686">getAttribute()</text>
        <polygon fill="#A80036" points="537.5,247.625,527.5,251.625,537.5,255.625,533.5,251.625" style="stroke: #A80036; stroke-width: 1.0;"/>
        <line style="stroke: #A80036; stroke-width: 1.0; stroke-dasharray: 2.0,2.0;" x1="531.5" x2="624.5" y1="251.625" y2="251.625"/>
        <text fill="#000000" font-family="sans-serif" font-size="13" lengthAdjust="spacingAndGlyphs" textLength="32" x="543.5" y="247.1201">Order</text>
        <polygon fill="#A80036" points="824,277.9766,834,281.9766,824,285.9766,828,281.9766" style="stroke: #A80036; stroke-width: 1.0;"/>
        <line style="stroke: #A80036; stroke-width: 1.0;" x1="526.5" x2="830" y1="281.9766" y2="281.9766"/>
        <text fill="#000000" font-family="sans-serif" font-size="13" lengthAdjust="spacingAndGlyphs" textLength="71" x="533.5" y="277.4717">createBoM()</text>
        <polygon fill="#A80036" points="537.5,308.3281,527.5,312.3281,537.5,316.3281,533.5,312.3281" style="stroke: #A80036; stroke-width: 1.0;"/>
        <line style="stroke: #A80036; stroke-width: 1.0; stroke-dasharray: 2.0,2.0;" x1="531.5" x2="835" y1="312.3281" y2="312.3281"/>
        <text fill="#000000" font-family="sans-serif" font-size="13" lengthAdjust="spacingAndGlyphs" textLength="86" x="543.5" y="307.8232">List&lt;LineItem&gt;</text>
        <polygon fill="#A80036" points="969.5,338.6797,979.5,342.6797,969.5,346.6797,973.5,342.6797" style="stroke: #A80036; stroke-width: 1.0;"/>
        <line style="stroke: #A80036; stroke-width: 1.0;" x1="526.5" x2="975.5" y1="342.6797" y2="342.6797"/>
        <text fill="#000000" font-family="sans-serif" font-size="13" lengthAdjust="spacingAndGlyphs" textLength="72" x="533.5" y="338.1748">getMaterial()</text>
        <polygon fill="#A80036" points="1096.5,369.0313,1106.5,373.0313,1096.5,377.0313,1100.5,373.0313" style="stroke: #A80036; stroke-width: 1.0;"/>
        <line style="stroke: #A80036; stroke-width: 1.0;" x1="981.5" x2="1102.5" y1="373.0313" y2="373.0313"/>
        <text fill="#000000" font-family="sans-serif" font-size="13" lengthAdjust="spacingAndGlyphs" textLength="72" x="988.5" y="368.5264">getMaterial()</text>
        <polygon fill="#A80036" points="1209.5,399.3828,1219.5,403.3828,1209.5,407.3828,1213.5,403.3828" style="stroke: #A80036; stroke-width: 1.0;"/>
        <line style="stroke: #A80036; stroke-width: 1.0;" x1="1108.5" x2="1215.5" y1="403.3828" y2="403.3828"/>
        <text fill="#000000" font-family="sans-serif" font-size="13" lengthAdjust="spacingAndGlyphs" textLength="89" x="1115.5" y="398.8779">executeQuery()</text>
        <polygon fill="#A80036" points="1119.5,429.7344,1109.5,433.7344,1119.5,437.7344,1115.5,433.7344" style="stroke: #A80036; stroke-width: 1.0;"/>
        <line style="stroke: #A80036; stroke-width: 1.0; stroke-dasharray: 2.0,2.0;" x1="1113.5" x2="1220.5" y1="433.7344" y2="433.7344"/>
        <text fill="#000000" font-family="sans-serif" font-size="13" lengthAdjust="spacingAndGlyphs" textLength="46" x="1125.5" y="429.2295">Material</text>
        <polygon fill="#A80036" points="992.5,460.0859,982.5,464.0859,992.5,468.0859,988.5,464.0859" style="stroke: #A80036; stroke-width: 1.0;"/>
        <line style="stroke: #A80036; stroke-width: 1.0; stroke-dasharray: 2.0,2.0;" x1="986.5" x2="1107.5" y1="464.0859" y2="464.0859"/>
        <text fill="#000000" font-family="sans-serif" font-size="13" lengthAdjust="spacingAndGlyphs" textLength="46" x="998.5" y="459.5811">Material</text>
        <polygon fill="#A80036" points="537.5,490.4375,527.5,494.4375,537.5,498.4375,533.5,494.4375" style="stroke: #A80036; stroke-width: 1.0;"/>
        <line style="stroke: #A80036; stroke-width: 1.0; stroke-dasharray: 2.0,2.0;" x1="531.5" x2="980.5" y1="494.4375" y2="494.4375"/>
        <text fill="#000000" font-family="sans-serif" font-size="13" lengthAdjust="spacingAndGlyphs" textLength="46" x="543.5" y="489.9326">Material</text>
        <polygon fill="#A80036" points="693,520.7891,703,524.7891,693,528.7891,697,524.7891" style="stroke: #A80036; stroke-width: 1.0;"/>
        <line style="stroke: #A80036; stroke-width: 1.0;" x1="526.5" x2="699" y1="524.7891" y2="524.7891"/>
        <text fill="#000000" font-family="sans-serif" font-size="13" lengthAdjust="spacingAndGlyphs" textLength="60" x="533.5" y="520.2842">setName()</text>
        <polygon fill="#A80036" points="693,551.1406,703,555.1406,693,559.1406,697,555.1406" style="stroke: #A80036; stroke-width: 1.0;"/>
        <line style="stroke: #A80036; stroke-width: 1.0;" x1="526.5" x2="699" y1="555.1406" y2="555.1406"/>
        <text fill="#000000" font-family="sans-serif" font-size="13" lengthAdjust="spacingAndGlyphs" textLength="56" x="533.5" y="550.6357">setPrice()</text>
        <polygon fill="#A80036" points="613.5,581.4922,623.5,585.4922,613.5,589.4922,617.5,585.4922" style="stroke: #A80036; stroke-width: 1.0;"/>
        <line style="stroke: #A80036; stroke-width: 1.0;" x1="526.5" x2="619.5" y1="585.4922" y2="585.4922"/>
        <text fill="#000000" font-family="sans-serif" font-size="13" lengthAdjust="spacingAndGlyphs" textLength="75" x="533.5" y="580.9873">setAttribute()</text>
        <polygon fill="#A80036" points="336,611.8438,326,615.8438,336,619.8438,332,615.8438" style="stroke: #A80036; stroke-width: 1.0;"/>
        <line style="stroke: #A80036; stroke-width: 1.0; stroke-dasharray: 2.0,2.0;" x1="330" x2="525.5" y1="615.8438" y2="615.8438"/>
        <text fill="#000000" font-family="sans-serif" font-size="13" lengthAdjust="spacingAndGlyphs" textLength="89" x="342" y="611.3389">"billofmaterials"</text>
        <polygon fill="#A80036" points="218,642.1953,208,646.1953,218,650.1953,214,646.1953" style="stroke: #A80036; stroke-width: 1.0;"/>
        <line style="stroke: #A80036; stroke-width: 1.0;" x1="212" x2="324" y1="646.1953" y2="646.1953"/>
        <text fill="#000000" font-family="sans-serif" font-size="13" lengthAdjust="spacingAndGlyphs" textLength="49" x="224" y="641.6904">forward()</text>
        <!--
@startuml

title Create BoM with inclination 
boundary orderinformation.jsp
boundary billofmaterials.jsp
control FrontController
collections Command
participant CreateBoM
participant Session
participant LineItem
participant BillOfMaterialsInclination
participant LogicFacade as LF
participant DataAccessObject as DAO
database Database as DB

orderinformation.jsp -> FrontController: Submit form
FrontController -> Command: from()
FrontController -> CreateBoM: execute()
CreateBoM -> Session: getAttribute()
Session - -> CreateBoM: Order
CreateBoM -> BillOfMaterialsInclination: createBoM()
BillOfMaterialsInclination - -> CreateBoM: List<LineItem>
CreateBoM -> LF: getMaterial()
LF -> DAO: getMaterial()
DAO -> DB: executeQuery()
DB - -> DAO: Material
DAO - -> LF: Material
LF - -> CreateBoM: Material
CreateBoM -> LineItem: setName()
CreateBoM -> LineItem: setPrice()
CreateBoM -> Session: setAttribute()
CreateBoM - -> FrontController: "billofmaterials"
FrontController -> billofmaterials.jsp: forward()






@enduml

PlantUML version 2017.11(Wed Apr 19 18:18:59 CEST 2017)
(GPL source distribution)
Java Runtime: Java(TM) SE Runtime Environment
JVM: Java HotSpot(TM) 64-Bit Server VM
Java Version: 1.8.0_144-b01
Operating System: Windows 10
OS Version: 10.0
Default Encoding: Cp1252
Language: en
Country: GB
-->
    </g>
</svg>
