<?xml version="1.0" encoding="UTF-8"?><svg xmlns="http://www.w3.org/2000/svg" xmlns:xlink="http://www.w3.org/1999/xlink" contentScriptType="application/ecmascript" contentStyleType="text/css" height="806px" preserveAspectRatio="none" style="width:1575px;height:806px;" version="1.1" viewBox="0 0 1575 806" width="1575px" zoomAndPan="magnify">
    <defs>
        <filter height="300%" id="f1st4mc9q31ctp" width="300%" x="-1" y="-1">
            <feGaussianBlur result="blurOut" stdDeviation="2.0"/>
            <feColorMatrix in="blurOut" result="blurOut2" type="matrix" values="0 0 0 0 0 0 0 0 0 0 0 0 0 0 0 0 0 0 .4 0"/>
            <feOffset dx="4.0" dy="4.0" in="blurOut2" result="blurOut3"/>
            <feBlend in="SourceGraphic" in2="blurOut3" mode="normal"/>
        </filter>
    </defs>
    <g>
        <text fill="#000000" font-family="sans-serif" font-size="18" lengthAdjust="spacingAndGlyphs" textLength="302" x="654" y="18.6855">Navigation for finished Carport project</text>
        <!--cluster Customer-->
        <rect fill="#F5DEB3" filter="url(#f1st4mc9q31ctp)" height="502" rx="12.5" ry="12.5" style="stroke: #A80036; stroke-width: 1.5;" width="592" x="30" y="233.6406"/>
        <rect fill="#FFFFFF" height="468.3906" rx="12.5" ry="12.5" style="stroke: #FFFFFF; stroke-width: 1.0;" width="586" x="33" y="264.25"/>
        <line style="stroke: #A80036; stroke-width: 1.5;" x1="30" x2="622" y1="261.25" y2="261.25"/>
        <text fill="#000000" font-family="sans-serif" font-size="14" lengthAdjust="spacingAndGlyphs" textLength="61" x="295.5" y="252.1738">Customer</text>
        <!--cluster Employee-->
        <rect fill="#F5DEB3" filter="url(#f1st4mc9q31ctp)" height="502" rx="12.5" ry="12.5" style="stroke: #A80036; stroke-width: 1.5;" width="797" x="771" y="233.6406"/>
        <rect fill="#FFFFFF" height="468.3906" rx="12.5" ry="12.5" style="stroke: #FFFFFF; stroke-width: 1.0;" width="791" x="774" y="264.25"/>
        <line style="stroke: #A80036; stroke-width: 1.5;" x1="771" x2="1568" y1="261.25" y2="261.25"/>
        <text fill="#000000" font-family="sans-serif" font-size="14" lengthAdjust="spacingAndGlyphs" textLength="62" x="1138.5" y="252.1738">Employee</text>
        <rect fill="#FA8072" filter="url(#f1st4mc9q31ctp)" height="50" rx="12.5" ry="12.5" style="stroke: #A80036; stroke-width: 1.5;" width="110" x="320" y="277.6406"/>
        <line style="stroke: #A80036; stroke-width: 1.5;" x1="320" x2="430" y1="305.25" y2="305.25"/>
        <text fill="#000000" font-family="sans-serif" font-size="14" lengthAdjust="spacingAndGlyphs" textLength="90" x="330" y="297.1738">customerpage</text>
        <rect fill="#FA8072" filter="url(#f1st4mc9q31ctp)" height="50" rx="12.5" ry="12.5" style="stroke: #A80036; stroke-width: 1.5;" width="96" x="197" y="405.6406"/>
        <line style="stroke: #A80036; stroke-width: 1.5;" x1="197" x2="293" y1="433.25" y2="433.25"/>
        <text fill="#000000" font-family="sans-serif" font-size="14" lengthAdjust="spacingAndGlyphs" textLength="76" x="207" y="425.1738">orderhistory</text>
        <rect fill="#FA8072" filter="url(#f1st4mc9q31ctp)" height="50" rx="12.5" ry="12.5" style="stroke: #A80036; stroke-width: 1.5;" width="182" x="68" y="533.6406"/>
        <line style="stroke: #A80036; stroke-width: 1.5;" x1="68" x2="250" y1="561.25" y2="561.25"/>
        <text fill="#000000" font-family="sans-serif" font-size="14" lengthAdjust="spacingAndGlyphs" textLength="162" x="78" y="553.1738">customerorderinformation</text>
        <rect fill="#FA8072" filter="url(#f1st4mc9q31ctp)" height="50" rx="12.5" ry="12.5" style="stroke: #A80036; stroke-width: 1.5;" width="154" x="276" y="661.6406"/>
        <line style="stroke: #A80036; stroke-width: 1.5;" x1="276" x2="430" y1="689.25" y2="689.25"/>
        <text fill="#000000" font-family="sans-serif" font-size="14" lengthAdjust="spacingAndGlyphs" textLength="134" x="286" y="681.1738">customertechdrawing</text>
        <rect fill="#FA8072" filter="url(#f1st4mc9q31ctp)" height="50" rx="12.5" ry="12.5" style="stroke: #A80036; stroke-width: 1.5;" width="164" x="54" y="661.6406"/>
        <line style="stroke: #A80036; stroke-width: 1.5;" x1="54" x2="218" y1="689.25" y2="689.25"/>
        <text fill="#000000" font-family="sans-serif" font-size="14" lengthAdjust="spacingAndGlyphs" textLength="144" x="64" y="681.1738">customerbillofmaterials</text>
        <rect fill="#FA8072" filter="url(#f1st4mc9q31ctp)" height="50" rx="12.5" ry="12.5" style="stroke: #A80036; stroke-width: 1.5;" width="95" x="376.5" y="405.6406"/>
        <line style="stroke: #A80036; stroke-width: 1.5;" x1="376.5" x2="471.5" y1="433.25" y2="433.25"/>
        <text fill="#000000" font-family="sans-serif" font-size="14" lengthAdjust="spacingAndGlyphs" textLength="75" x="386.5" y="425.1738">submitorder</text>
        <rect fill="#FA8072" filter="url(#f1st4mc9q31ctp)" height="50" rx="12.5" ry="12.5" style="stroke: #A80036; stroke-width: 1.5;" width="131" x="389.5" y="533.6406"/>
        <line style="stroke: #A80036; stroke-width: 1.5;" x1="389.5" x2="520.5" y1="561.25" y2="561.25"/>
        <text fill="#000000" font-family="sans-serif" font-size="14" lengthAdjust="spacingAndGlyphs" textLength="111" x="399.5" y="553.1738">orderconfirmation</text>
        <rect fill="#1E90FF" filter="url(#f1st4mc9q31ctp)" height="50" rx="12.5" ry="12.5" style="stroke: #A80036; stroke-width: 1.5;" width="106" x="986" y="277.6406"/>
        <line style="stroke: #A80036; stroke-width: 1.5;" x1="986" x2="1092" y1="305.25" y2="305.25"/>
        <text fill="#000000" font-family="sans-serif" font-size="14" lengthAdjust="spacingAndGlyphs" textLength="86" x="996" y="297.1738">browseorders</text>
        <rect fill="#1E90FF" filter="url(#f1st4mc9q31ctp)" height="50" rx="12.5" ry="12.5" style="stroke: #A80036; stroke-width: 1.5;" width="124" x="977" y="405.6406"/>
        <line style="stroke: #A80036; stroke-width: 1.5;" x1="977" x2="1101" y1="433.25" y2="433.25"/>
        <text fill="#000000" font-family="sans-serif" font-size="14" lengthAdjust="spacingAndGlyphs" textLength="104" x="987" y="425.1738">orderinformation</text>
        <rect fill="#1E90FF" filter="url(#f1st4mc9q31ctp)" height="50" rx="12.5" ry="12.5" style="stroke: #A80036; stroke-width: 1.5;" width="122" x="1307" y="405.6406"/>
        <line style="stroke: #A80036; stroke-width: 1.5;" x1="1307" x2="1429" y1="433.25" y2="433.25"/>
        <text fill="#000000" font-family="sans-serif" font-size="14" lengthAdjust="spacingAndGlyphs" textLength="102" x="1317" y="425.1738">browsematerials</text>
        <rect fill="#1E90FF" filter="url(#f1st4mc9q31ctp)" height="50" rx="12.5" ry="12.5" style="stroke: #A80036; stroke-width: 1.5;" width="96" x="1054" y="533.6406"/>
        <line style="stroke: #A80036; stroke-width: 1.5;" x1="1054" x2="1150" y1="561.25" y2="561.25"/>
        <text fill="#000000" font-family="sans-serif" font-size="14" lengthAdjust="spacingAndGlyphs" textLength="76" x="1064" y="553.1738">techdrawing</text>
        <rect fill="#1E90FF" filter="url(#f1st4mc9q31ctp)" height="50" rx="12.5" ry="12.5" style="stroke: #A80036; stroke-width: 1.5;" width="106" x="803" y="533.6406"/>
        <line style="stroke: #A80036; stroke-width: 1.5;" x1="803" x2="909" y1="561.25" y2="561.25"/>
        <text fill="#000000" font-family="sans-serif" font-size="14" lengthAdjust="spacingAndGlyphs" textLength="86" x="813" y="553.1738">billofmaterials</text>
        <rect fill="#1E90FF" filter="url(#f1st4mc9q31ctp)" height="50" rx="12.5" ry="12.5" style="stroke: #A80036; stroke-width: 1.5;" width="140" x="1309" y="533.6406"/>
        <line style="stroke: #A80036; stroke-width: 1.5;" x1="1309" x2="1449" y1="561.25" y2="561.25"/>
        <text fill="#000000" font-family="sans-serif" font-size="14" lengthAdjust="spacingAndGlyphs" textLength="120" x="1319" y="553.1738">materialinformation</text>
        <rect fill="#1E90FF" filter="url(#f1st4mc9q31ctp)" height="50" rx="12.5" ry="12.5" style="stroke: #A80036; stroke-width: 1.5;" width="140" x="1309" y="661.6406"/>
        <line style="stroke: #A80036; stroke-width: 1.5;" x1="1309" x2="1449" y1="689.25" y2="689.25"/>
        <text fill="#000000" font-family="sans-serif" font-size="14" lengthAdjust="spacingAndGlyphs" textLength="120" x="1319" y="681.1738">materialinformatino</text>
        <polygon fill="#FBFB77" filter="url(#f1st4mc9q31ctp)" points="714,115.1406,714,157.8438,844,157.8438,844,125.1406,834,115.1406,714,115.1406" style="stroke: #A80036; stroke-width: 1.0;"/>
        <line style="stroke: #A80036; stroke-width: 1.0;" x1="834" x2="834" y1="115.1406" y2="125.1406"/>
        <line style="stroke: #A80036; stroke-width: 1.0;" x1="844" x2="834" y1="125.1406" y2="125.1406"/>
        <text fill="#000000" font-family="sans-serif" font-size="13" lengthAdjust="spacingAndGlyphs" textLength="109" x="720" y="133.6357">Username and role</text>
        <text fill="#000000" font-family="sans-serif" font-size="13" lengthAdjust="spacingAndGlyphs" textLength="99" x="720" y="149.9873">stored in session</text>
        <polygon fill="#FBFB77" filter="url(#f1st4mc9q31ctp)" points="549,115.1406,549,157.8438,679,157.8438,679,125.1406,669,115.1406,549,115.1406" style="stroke: #A80036; stroke-width: 1.0;"/>
        <line style="stroke: #A80036; stroke-width: 1.0;" x1="669" x2="669" y1="115.1406" y2="125.1406"/>
        <line style="stroke: #A80036; stroke-width: 1.0;" x1="679" x2="669" y1="125.1406" y2="125.1406"/>
        <text fill="#000000" font-family="sans-serif" font-size="13" lengthAdjust="spacingAndGlyphs" textLength="109" x="555" y="133.6357">Username and role</text>
        <text fill="#000000" font-family="sans-serif" font-size="13" lengthAdjust="spacingAndGlyphs" textLength="99" x="555" y="149.9873">stored in session</text>
        <ellipse cx="751" cy="40.6406" fill="#000000" filter="url(#f1st4mc9q31ctp)" rx="10" ry="10" style="stroke: none; stroke-width: 1.0;"/>
        <rect fill="#FA8072" filter="url(#f1st4mc9q31ctp)" height="50" rx="12.5" ry="12.5" style="stroke: #A80036; stroke-width: 1.5;" width="111" x="402.5" y="111.6406"/>
        <line style="stroke: #A80036; stroke-width: 1.5;" x1="402.5" x2="513.5" y1="139.25" y2="139.25"/>
        <text fill="#000000" font-family="sans-serif" font-size="14" lengthAdjust="spacingAndGlyphs" textLength="91" x="412.5" y="131.1738">customerindex</text>
        <rect fill="#1E90FF" filter="url(#f1st4mc9q31ctp)" height="50" rx="12.5" ry="12.5" style="stroke: #A80036; stroke-width: 1.5;" width="114" x="879" y="111.6406"/>
        <line style="stroke: #A80036; stroke-width: 1.5;" x1="879" x2="993" y1="139.25" y2="139.25"/>
        <text fill="#000000" font-family="sans-serif" font-size="14" lengthAdjust="spacingAndGlyphs" textLength="94" x="889" y="131.1738">employeeindex</text>
        <ellipse cx="695" cy="430.6406" fill="none" filter="url(#f1st4mc9q31ctp)" rx="10" ry="10" style="stroke: #000000; stroke-width: 1.0;"/>
        <ellipse cx="695.5" cy="431.1406" fill="#000000" rx="6" ry="6" style="stroke: none; stroke-width: 1.0;"/>
        <path d="M779,158.4116 C779,169.2716 779,183.4607 779,198.6827 C779,206.2937 779,214.1629 779,222.0033 C779,223.9634 779,225.9217 779,227.8737 C779,228.8497 779,229.8242 779,230.7965 C779,231.2826 779,231.7682 779,232.2532 C779,232.4958 779,232.7381 779,232.9803 " fill="none" style="stroke: #A80036; stroke-width: 1.0; stroke-dasharray: 7.0,7.0;"/>
        <path d="M614,158.4116 C614,169.2716 614,183.4607 614,198.6827 C614,206.2937 614,214.1629 614,222.0033 C614,223.9634 614,225.9217 614,227.8737 C614,228.8497 614,229.8242 614,230.7965 C614,231.2826 614,231.7682 614,232.2532 C614,232.4958 614,232.7381 614,232.9803 " fill="none" style="stroke: #A80036; stroke-width: 1.0; stroke-dasharray: 7.0,7.0;"/>
        <path d="M741.768,44.5436 C711.513,54.0636 612.611,85.2426 531,111.6406 C526.986,112.9386 522.849,114.2826 518.682,115.6416 " fill="none" style="stroke: #A80036; stroke-width: 1.0;"/>
        <polygon fill="#A80036" points="513.781,117.2406,523.5777,118.2531,518.5346,115.6904,521.0973,110.6473,513.781,117.2406" style="stroke: #A80036; stroke-width: 1.0;"/>
        <path d="M759.923,46.1746 C781.929,57.3556 840.165,86.9456 883.678,109.0556 " fill="none" style="stroke: #A80036; stroke-width: 1.0;"/>
        <polygon fill="#A80036" points="888.373,111.4406,882.1607,103.7981,883.9152,109.176,878.5374,110.9306,888.373,111.4406" style="stroke: #A80036; stroke-width: 1.0;"/>
        <path d="M431.212,161.8046 C422.817,170.5216 414.149,180.8806 408,191.6406 C393.56,216.9076 384.858,249.1206 380.046,272.1456 " fill="none" style="stroke: #A80036; stroke-width: 1.0;"/>
        <polygon fill="#A80036" points="379.02,277.2056,384.7276,269.1792,380.0129,272.3052,376.887,267.5905,379.02,277.2056" style="stroke: #A80036; stroke-width: 1.0;"/>
        <text fill="#000000" font-family="sans-serif" font-size="13" lengthAdjust="spacingAndGlyphs" textLength="35" x="409" y="206.1357">Log in</text>
        <path d="M430.368,290.6436 C449.528,290.5166 465,294.5156 465,302.6406 C465,310.0036 452.293,313.9786 435.65,314.5646 " fill="none" style="stroke: #A80036; stroke-width: 1.0;"/>
        <polygon fill="#A80036" points="430.368,314.6376,439.422,318.5138,435.3675,314.5691,439.3123,310.5146,430.368,314.6376" style="stroke: #A80036; stroke-width: 1.0;"/>
        <text fill="#000000" font-family="sans-serif" font-size="13" lengthAdjust="spacingAndGlyphs" textLength="119" x="471" y="308.1357">Edit customerdetails</text>
        <path d="M349.935,327.9346 C328.174,349.0266 296.663,379.5676 273.856,401.6726 " fill="none" style="stroke: #A80036; stroke-width: 1.0;"/>
        <polygon fill="#A80036" points="269.988,405.4216,279.2343,402.0295,273.5781,401.9415,273.6661,396.2854,269.988,405.4216" style="stroke: #A80036; stroke-width: 1.0;"/>
        <path d="M228.418,455.9346 C214.141,476.8516 193.521,507.0636 178.464,529.1226 " fill="none" style="stroke: #A80036; stroke-width: 1.0;"/>
        <polygon fill="#A80036" points="175.531,533.4216,183.9082,528.2426,178.3495,529.2917,177.3004,523.733,175.531,533.4216" style="stroke: #A80036; stroke-width: 1.0;"/>
        <text fill="#000000" font-family="sans-serif" font-size="13" lengthAdjust="spacingAndGlyphs" textLength="176" x="209" y="500.1357">View specific order information</text>
        <path d="M250.176,546.9636 C270.325,548.0606 285,551.9526 285,558.6406 C285,564.7536 272.739,568.5306 255.244,569.9726 " fill="none" style="stroke: #A80036; stroke-width: 1.0;"/>
        <polygon fill="#A80036" points="250.176,570.3176,259.4272,573.6962,255.1644,569.9775,258.8831,565.7147,250.176,570.3176" style="stroke: #A80036; stroke-width: 1.0;"/>
        <text fill="#000000" font-family="sans-serif" font-size="13" lengthAdjust="spacingAndGlyphs" textLength="74" x="291" y="564.1357">Pay for order</text>
        <path d="M250.194,579.0126 C272.811,586.9876 295.767,598.1326 314,613.6406 C327.329,624.9776 336.856,642.0566 343.156,656.7366 " fill="none" style="stroke: #A80036; stroke-width: 1.0;"/>
        <polygon fill="#A80036" points="345.17,661.6108,345.4306,651.7654,343.2609,656.9896,338.0367,654.8199,345.17,661.6108" style="stroke: #A80036; stroke-width: 1.0;"/>
        <text fill="#000000" font-family="sans-serif" font-size="13" lengthAdjust="spacingAndGlyphs" textLength="235" x="330" y="628.1357">Show technical drawing for specific order</text>
        <path d="M112.873,583.7186 C102.1063,591.7026 92.032,601.6756 86,613.6406 C78.235,629.0436 87.1472,644.9206 99.4912,657.8336 " fill="none" style="stroke: #A80036; stroke-width: 1.0;"/>
        <polygon fill="#A80036" points="103.0528,661.3939,99.5165,652.2018,99.517,657.8587,93.8601,657.8591,103.0528,661.3939" style="stroke: #A80036; stroke-width: 1.0;"/>
        <text fill="#000000" font-family="sans-serif" font-size="13" lengthAdjust="spacingAndGlyphs" textLength="222" x="87" y="628.1357">Show bill of materials for specific order</text>
        <path d="M384.448,327.9346 C392.514,348.6776 404.136,378.5606 412.695,400.5696 " fill="none" style="stroke: #A80036; stroke-width: 1.0;"/>
        <polygon fill="#A80036" points="414.581,405.4216,415.0458,395.5837,412.7682,400.7618,407.5901,398.4842,414.581,405.4216" style="stroke: #A80036; stroke-width: 1.0;"/>
        <path d="M429.977,455.9346 C435.059,476.5906 442.371,506.3096 447.779,528.2916 " fill="none" style="stroke: #A80036; stroke-width: 1.0;"/>
        <polygon fill="#A80036" points="449.041,533.4216,450.7757,523.7267,447.8468,528.5663,443.0072,525.6374,449.041,533.4216" style="stroke: #A80036; stroke-width: 1.0;"/>
        <path d="M951.198,161.8396 C969.812,191.4776 1001.3,241.6146 1021.08,273.1036 " fill="none" style="stroke: #A80036; stroke-width: 1.0;"/>
        <polygon fill="#A80036" points="1023.91,277.6096,1022.5036,267.8617,1021.2477,273.3774,1015.732,272.1214,1023.91,277.6096" style="stroke: #A80036; stroke-width: 1.0;"/>
        <text fill="#000000" font-family="sans-serif" font-size="13" lengthAdjust="spacingAndGlyphs" textLength="35" x="980" y="206.1357">Log in</text>
        <path d="M1092.27,290.6526 C1111.4,290.3946 1127,294.3906 1127,302.6406 C1127,310.1176 1114.19,314.0996 1097.55,314.5896 " fill="none" style="stroke: #A80036; stroke-width: 1.0;"/>
        <polygon fill="#A80036" points="1092.27,314.6286,1101.2927,318.5771,1097.2699,314.6001,1101.247,310.5773,1092.27,314.6286" style="stroke: #A80036; stroke-width: 1.0;"/>
        <text fill="#000000" font-family="sans-serif" font-size="13" lengthAdjust="spacingAndGlyphs" textLength="191" x="1133" y="308.1357">Update status on a specific order</text>
        <path d="M1039,327.9346 C1039,348.5906 1039,378.3096 1039,400.2916 " fill="none" style="stroke: #A80036; stroke-width: 1.0;"/>
        <polygon fill="#A80036" points="1039,405.4216,1043,396.4216,1039,400.4216,1035,396.4216,1039,405.4216" style="stroke: #A80036; stroke-width: 1.0;"/>
        <text fill="#000000" font-family="sans-serif" font-size="13" lengthAdjust="spacingAndGlyphs" textLength="116" x="1040" y="372.1357">Go to specific Order</text>
        <path d="M1092.23,324.0246 C1149.39,345.9166 1240.3,380.7326 1301.97,404.3546 " fill="none" style="stroke: #A80036; stroke-width: 1.0;"/>
        <polygon fill="#A80036" points="1306.73,406.1776,1299.7522,399.227,1302.0598,404.3918,1296.895,406.6994,1306.73,406.1776" style="stroke: #A80036; stroke-width: 1.0;"/>
        <path d="M1051.15,455.9346 C1061.56,476.7646 1076.59,506.8116 1087.6,528.8466 " fill="none" style="stroke: #A80036; stroke-width: 1.0;"/>
        <polygon fill="#A80036" points="1089.89,533.4216,1089.4428,523.5829,1087.6539,528.9495,1082.2874,527.1606,1089.89,533.4216" style="stroke: #A80036; stroke-width: 1.0;"/>
        <text fill="#000000" font-family="sans-serif" font-size="13" lengthAdjust="spacingAndGlyphs" textLength="235" x="1076" y="500.1357">Show technical drawing for specific order</text>
        <path d="M976.882,439.7176 C923.45,448.0906 852.319,463.1406 835,485.6406 C825.438,498.0626 829.514,514.7246 836.516,528.8916 " fill="none" style="stroke: #A80036; stroke-width: 1.0;"/>
        <polygon fill="#A80036" points="838.987,533.5906,838.3387,523.7631,836.66,529.1651,831.258,527.4864,838.987,533.5906" style="stroke: #A80036; stroke-width: 1.0;"/>
        <text fill="#000000" font-family="sans-serif" font-size="13" lengthAdjust="spacingAndGlyphs" textLength="222" x="836" y="500.1357">Show bill of materials for specific order</text>
        <path d="M1370.12,455.9346 C1371.92,476.5906 1374.52,506.3096 1376.44,528.2916 " fill="none" style="stroke: #A80036; stroke-width: 1.0;"/>
        <polygon fill="#A80036" points="1376.89,533.4216,1380.0889,524.1068,1376.4535,528.4407,1372.1195,524.8052,1376.89,533.4216" style="stroke: #A80036; stroke-width: 1.0;"/>
        <text fill="#000000" font-family="sans-serif" font-size="13" lengthAdjust="spacingAndGlyphs" textLength="163" x="1375" y="500.1357">See specific material details</text>
        <path d="M1379,583.9346 C1379,604.5906 1379,634.3096 1379,656.2916 " fill="none" style="stroke: #A80036; stroke-width: 1.0;"/>
        <polygon fill="#A80036" points="1379,661.4211,1383,652.4211,1379,656.4211,1375,652.4211,1379,661.4211" style="stroke: #A80036; stroke-width: 1.0;"/>
        <text fill="#000000" font-family="sans-serif" font-size="13" lengthAdjust="spacingAndGlyphs" textLength="115" x="1380" y="628.1357">Edit material details</text>
        <path d="M1101.04,418.6476 C1120.58,418.8306 1136,422.8276 1136,430.6406 C1136,437.7206 1123.34,441.6676 1106.42,442.4816 " fill="none" style="stroke: #A80036; stroke-width: 1.0;"/>
        <polygon fill="#A80036" points="1101.04,442.6336,1110.1506,446.3748,1106.038,442.4907,1109.922,438.3781,1101.04,442.6336" style="stroke: #A80036; stroke-width: 1.0;"/>
        <text fill="#000000" font-family="sans-serif" font-size="13" lengthAdjust="spacingAndGlyphs" textLength="59" x="1142" y="436.1357">Edit Order</text>
        <path d="M779.0699,233.5989 C779.159,233.3276 779.2497,233.0569 779.3421,232.7868 C779.7115,231.7066 780.1069,230.6369 780.5295,229.5799 C782.2201,225.3519 784.3475,221.3268 787,217.6406 C792.113,210.5346 797.157,213.5306 805,209.6406 C833.563,195.4756 864.881,178.3236 889.731,164.3156 " fill="none" style="stroke: #A80036; stroke-width: 1.0;"/>
        <polygon fill="#A80036" points="894.294,161.7376,884.4907,162.6834,889.9411,164.1977,888.4267,169.6481,894.294,161.7376" style="stroke: #A80036; stroke-width: 1.0;"/>
        <text fill="#000000" font-family="sans-serif" font-size="13" lengthAdjust="spacingAndGlyphs" textLength="89" x="839" y="206.1357">Through header</text>
        <path d="M615.9771,233.4108 C615.9276,233.2804 615.8777,233.1502 615.8273,233.0203 C615.6256,232.5005 615.416,231.9845 615.1983,231.4726 C614.7628,230.4487 614.2947,229.4411 613.7923,228.4522 C611.7825,224.4965 609.2229,220.8401 606,217.6406 C591.594,203.3386 532.869,219.2736 515,209.6406 C496.913,199.8906 482.591,181.7086 472.826,166.0556 " fill="none" style="stroke: #A80036; stroke-width: 1.0;"/>
        <polygon fill="#A80036" points="470.194,161.7176,471.4419,171.4871,472.7872,165.9926,478.2818,167.3379,470.194,161.7176" style="stroke: #A80036; stroke-width: 1.0;"/>
        <text fill="#000000" font-family="sans-serif" font-size="13" lengthAdjust="spacingAndGlyphs" textLength="89" x="516" y="206.1357">Through header</text>
        <path d="M622.0966,326.7505 C622.1783,326.9623 622.2605,327.1751 622.3433,327.3887 C622.6745,328.2431 623.0145,329.1117 623.3631,329.993 C628.9418,344.0934 636.739,361.4301 646,375.6406 C657.08,392.6436 673.499,409.5276 684.224,419.7736 " fill="none" style="stroke: #A80036; stroke-width: 1.0;"/>
        <polygon fill="#A80036" points="687.898,423.2366,684.0929,414.1525,684.2597,419.8069,678.6053,419.9737,687.898,423.2366" style="stroke: #A80036; stroke-width: 1.0;"/>
        <text fill="#000000" font-family="sans-serif" font-size="13" lengthAdjust="spacingAndGlyphs" textLength="43" x="647" y="372.1357">Log out</text>
        <path d="M770.9809,315.1832 C770.934,315.2509 770.887,315.3189 770.8398,315.387 C769.3301,317.5679 767.6624,319.9808 765.882,322.563 C758.7602,332.8916 749.8345,345.9271 742,357.6406 C728.131,378.3756 712.342,402.7196 703.048,417.1266 " fill="none" style="stroke: #A80036; stroke-width: 1.0;"/>
        <polygon fill="#A80036" points="700.158,421.6116,708.3957,416.2134,702.8666,417.4088,701.6711,411.8797,700.158,421.6116" style="stroke: #A80036; stroke-width: 1.0;"/>
        <text fill="#000000" font-family="sans-serif" font-size="13" lengthAdjust="spacingAndGlyphs" textLength="43" x="743" y="372.1357">Log out</text>
        <rect fill="#DDDDDD" height="27.6094" rx="5" ry="5" style="stroke: #000000; stroke-width: 1.0;" width="1160" x="224.5" y="777.6406"/>
        <text fill="#000000" font-family="sans-serif" font-size="14" lengthAdjust="spacingAndGlyphs" textLength="1148" x="230.5" y="797.1738">All boxes represents jsp pages. Every jsp page goes to the Frontcontroller servlet which uses javaclasses called commands to do specific operations and navigate to the next jsp page</text>
        <!--
@startuml

Title Navigation for finished Carport project

note top of Employee
Username and role
stored in session
end note
note top of Customer
Username and role
stored in session
end note

legend bottom center
All boxes represents jsp pages. Every jsp page goes to the Frontcontroller servlet which uses javaclasses called commands to do specific operations and navigate to the next jsp page
end legend

[*] - -> customerindex #Salmon
[*] - -> employeeindex #DodgerBlue


state Customer #Wheat {
customerindex - -> customerpage #Salmon : Log in
customerpage - -> customerpage : Edit customerdetails 
customerpage - -> orderhistory #Salmon 
orderhistory - -> customerorderinformation #Salmon : View specific order information 
customerorderinformation - -> customerorderinformation : Pay for order 
customerorderinformation - -> customertechdrawing #Salmon : Show technical drawing for specific order
customerorderinformation - -> customerbillofmaterials  #Salmon : Show bill of materials for specific order
customerpage - -> submitorder #Salmon 
submitorder - -> orderconfirmation #Salmon
}

state Employee #Wheat {
employeeindex - -> browseorders #DodgerBlue : Log in
browseorders - -> browseorders : Update status on a specific order
browseorders - -> orderinformation #DodgerBlue : Go to specific Order
browseorders - -> browsematerials #DodgerBlue
orderinformation - -> techdrawing #DodgerBlue : Show technical drawing for specific order 
orderinformation - -> billofmaterials #DodgerBlue : Show bill of materials for specific order
browsematerials - -> materialinformation #DodgerBlue : See specific material details
materialinformation - -> materialinformatino #DodgerBlue : Edit material details
orderinformation - -> orderinformation : Edit Order
}

Employee - -> employeeindex : Through header
Customer - -> customerindex : Through header 

Customer - -> [*] : Log out
Employee - -> [*] : Log out

@enduml

PlantUML version 2017.11(Wed Apr 19 18:18:59 CEST 2017)
(GPL source distribution)
Java Runtime: Java(TM) SE Runtime Environment
JVM: Java HotSpot(TM) 64-Bit Server VM
Java Version: 1.8.0_144-b01
Operating System: Windows 10
OS Version: 10.0
Default Encoding: Cp1252
Language: en
Country: GB
-->
    </g>
</svg>
