<?xml version="1.0" encoding="UTF-8"?><svg xmlns="http://www.w3.org/2000/svg" xmlns:xlink="http://www.w3.org/1999/xlink" contentScriptType="application/ecmascript" contentStyleType="text/css" height="615px" preserveAspectRatio="none" style="width:1169px;height:615px;" version="1.1" viewBox="0 0 1169 615" width="1169px" zoomAndPan="magnify">
    <defs>
        <filter height="300%" id="fiec6wyzy6aa8" width="300%" x="-1" y="-1">
            <feGaussianBlur result="blurOut" stdDeviation="2.0"/>
            <feColorMatrix in="blurOut" result="blurOut2" type="matrix" values="0 0 0 0 0 0 0 0 0 0 0 0 0 0 0 0 0 0 .4 0"/>
            <feOffset dx="4.0" dy="4.0" in="blurOut2" result="blurOut3"/>
            <feBlend in="SourceGraphic" in2="blurOut3" mode="normal"/>
        </filter>
    </defs>
    <g>
        <text fill="#000000" font-family="sans-serif" font-size="18" lengthAdjust="spacingAndGlyphs" textLength="301" x="438" y="18.6855">Navigation  for current Carport project</text>
        <!--cluster Customer-->
        <rect fill="#F5DEB3" filter="url(#fiec6wyzy6aa8)" height="246" rx="12.5" ry="12.5" style="stroke: #A80036; stroke-width: 1.5;" width="194" x="137" y="152.6406"/>
        <rect fill="#FFFFFF" height="212.3906" rx="12.5" ry="12.5" style="stroke: #FFFFFF; stroke-width: 1.0;" width="188" x="140" y="183.25"/>
        <line style="stroke: #A80036; stroke-width: 1.5;" x1="137" x2="331" y1="180.25" y2="180.25"/>
        <text fill="#000000" font-family="sans-serif" font-size="14" lengthAdjust="spacingAndGlyphs" textLength="61" x="203.5" y="171.1738">Customer</text>
        <!--cluster Employee-->
        <rect fill="#F5DEB3" filter="url(#fiec6wyzy6aa8)" height="392" rx="12.5" ry="12.5" style="stroke: #A80036; stroke-width: 1.5;" width="592" x="436" y="152.6406"/>
        <rect fill="#FFFFFF" height="358.3906" rx="12.5" ry="12.5" style="stroke: #FFFFFF; stroke-width: 1.0;" width="586" x="439" y="183.25"/>
        <line style="stroke: #A80036; stroke-width: 1.5;" x1="436" x2="1028" y1="180.25" y2="180.25"/>
        <text fill="#000000" font-family="sans-serif" font-size="14" lengthAdjust="spacingAndGlyphs" textLength="62" x="701" y="171.1738">Employee</text>
        <rect fill="#FA8072" filter="url(#fiec6wyzy6aa8)" height="50" rx="12.5" ry="12.5" style="stroke: #A80036; stroke-width: 1.5;" width="100" x="185" y="196.6406"/>
        <line style="stroke: #A80036; stroke-width: 1.5;" x1="185" x2="285" y1="224.25" y2="224.25"/>
        <text fill="#000000" font-family="sans-serif" font-size="14" lengthAdjust="spacingAndGlyphs" textLength="80" x="195" y="216.1738">SubmitOrder</text>
        <rect fill="#FA8072" filter="url(#fiec6wyzy6aa8)" height="50" rx="12.5" ry="12.5" style="stroke: #A80036; stroke-width: 1.5;" width="137" x="161.5" y="324.6406"/>
        <line style="stroke: #A80036; stroke-width: 1.5;" x1="161.5" x2="298.5" y1="352.25" y2="352.25"/>
        <text fill="#000000" font-family="sans-serif" font-size="14" lengthAdjust="spacingAndGlyphs" textLength="117" x="171.5" y="344.1738">OrderConfirmation</text>
        <rect fill="#1E90FF" filter="url(#fiec6wyzy6aa8)" height="50" rx="12.5" ry="12.5" style="stroke: #A80036; stroke-width: 1.5;" width="110" x="518" y="196.6406"/>
        <line style="stroke: #A80036; stroke-width: 1.5;" x1="518" x2="628" y1="224.25" y2="224.25"/>
        <text fill="#000000" font-family="sans-serif" font-size="14" lengthAdjust="spacingAndGlyphs" textLength="90" x="528" y="216.1738">BrowseOrders</text>
        <rect fill="#1E90FF" filter="url(#fiec6wyzy6aa8)" height="50" rx="12.5" ry="12.5" style="stroke: #A80036; stroke-width: 1.5;" width="127" x="509.5" y="324.6406"/>
        <line style="stroke: #A80036; stroke-width: 1.5;" x1="509.5" x2="636.5" y1="352.25" y2="352.25"/>
        <text fill="#000000" font-family="sans-serif" font-size="14" lengthAdjust="spacingAndGlyphs" textLength="107" x="519.5" y="344.1738">OrderInformation</text>
        <rect fill="#1E90FF" filter="url(#fiec6wyzy6aa8)" height="50" rx="12.5" ry="12.5" style="stroke: #A80036; stroke-width: 1.5;" width="96" x="468" y="470.6406"/>
        <line style="stroke: #A80036; stroke-width: 1.5;" x1="468" x2="564" y1="498.25" y2="498.25"/>
        <text fill="#000000" font-family="sans-serif" font-size="14" lengthAdjust="spacingAndGlyphs" textLength="76" x="478" y="490.1738">techdrawing</text>
        <rect fill="#1E90FF" filter="url(#fiec6wyzy6aa8)" height="50" rx="12.5" ry="12.5" style="stroke: #A80036; stroke-width: 1.5;" width="106" x="727" y="470.6406"/>
        <line style="stroke: #A80036; stroke-width: 1.5;" x1="727" x2="833" y1="498.25" y2="498.25"/>
        <text fill="#000000" font-family="sans-serif" font-size="14" lengthAdjust="spacingAndGlyphs" textLength="86" x="737" y="490.1738">billofmaterials</text>
        <polygon fill="#FBFB77" filter="url(#fiec6wyzy6aa8)" points="564,34.1406,564,76.8438,694,76.8438,694,44.1406,684,34.1406,564,34.1406" style="stroke: #A80036; stroke-width: 1.0;"/>
        <line style="stroke: #A80036; stroke-width: 1.0;" x1="684" x2="684" y1="34.1406" y2="44.1406"/>
        <line style="stroke: #A80036; stroke-width: 1.0;" x1="694" x2="684" y1="44.1406" y2="44.1406"/>
        <text fill="#000000" font-family="sans-serif" font-size="13" lengthAdjust="spacingAndGlyphs" textLength="109" x="570" y="52.6357">Username and role</text>
        <text fill="#000000" font-family="sans-serif" font-size="13" lengthAdjust="spacingAndGlyphs" textLength="99" x="570" y="68.9873">stored in session</text>
        <ellipse cx="271" cy="55.6406" fill="#000000" filter="url(#fiec6wyzy6aa8)" rx="10" ry="10" style="stroke: none; stroke-width: 1.0;"/>
        <rect fill="#FEFECE" filter="url(#fiec6wyzy6aa8)" height="50" rx="12.5" ry="12.5" style="stroke: #A80036; stroke-width: 1.5;" width="53" x="350.5" y="30.6406"/>
        <line style="stroke: #A80036; stroke-width: 1.5;" x1="350.5" x2="403.5" y1="58.25" y2="58.25"/>
        <text fill="#000000" font-family="sans-serif" font-size="14" lengthAdjust="spacingAndGlyphs" textLength="33" x="360.5" y="50.1738">index</text>
        <ellipse cx="382" cy="349.6406" fill="none" filter="url(#fiec6wyzy6aa8)" rx="10" ry="10" style="stroke: #000000; stroke-width: 1.0;"/>
        <ellipse cx="382.5" cy="350.1406" fill="#000000" rx="6" ry="6" style="stroke: none; stroke-width: 1.0;"/>
        <path d="M628.756,77.2446 C627.35,93.9296 622.453,116.5746 607,128.6406 C593.407,139.2536 464.456,124.7136 452,136.6406 C448.7199,139.7814 446.1168,143.3932 444.075,147.316 C443.5646,148.2967 443.0892,149.2968 442.6471,150.3139 C442.426,150.8224 442.2133,151.3352 442.0086,151.8519 C441.9063,152.1102 441.806,152.3696 441.7077,152.6298 " fill="none" style="stroke: #A80036; stroke-width: 1.0; stroke-dasharray: 7.0,7.0;"/>
        <path d="M281.352,55.6406 C302.682,55.6406 324.012,55.6406 345.342,55.6406 " fill="none" style="stroke: #A80036; stroke-width: 1.0;"/>
        <polygon fill="#A80036" points="350.473,55.6406,341.473,51.6406,345.473,55.6406,341.473,59.6406,350.473,55.6406" style="stroke: #A80036; stroke-width: 1.0;"/>
        <path d="M350.195,70.8176 C333.728,80.4676 312.991,94.4086 298,110.6406 C275.743,134.7406 258.046,168.0696 247.144,191.7096 " fill="none" style="stroke: #A80036; stroke-width: 1.0;"/>
        <polygon fill="#A80036" points="245.055,196.3026,252.4221,189.7661,247.125,191.7512,245.1399,186.4541,245.055,196.3026" style="stroke: #A80036; stroke-width: 1.0;"/>
        <path d="M234.036,246.9346 C233.216,267.5906 232.037,297.3096 231.165,319.2916 " fill="none" style="stroke: #A80036; stroke-width: 1.0;"/>
        <polygon fill="#A80036" points="230.961,324.4216,235.3153,315.5876,231.1596,319.4256,227.3216,315.2699,230.961,324.4216" style="stroke: #A80036; stroke-width: 1.0;"/>
        <path d="M403.732,62.0026 C432.736,68.9716 479.037,83.5836 510,110.6406 C535.168,132.6336 552.647,167.2476 562.702,191.7656 " fill="none" style="stroke: #A80036; stroke-width: 1.0;"/>
        <polygon fill="#A80036" points="564.614,196.5286,564.9729,186.6863,562.7511,191.8886,557.5488,189.6669,564.614,196.5286" style="stroke: #A80036; stroke-width: 1.0;"/>
        <text fill="#000000" font-family="sans-serif" font-size="13" lengthAdjust="spacingAndGlyphs" textLength="31" x="527" y="125.1357">Login</text>
        <path d="M628.368,209.6436 C647.528,209.5166 663,213.5156 663,221.6406 C663,229.0036 650.293,232.9786 633.65,233.5646 " fill="none" style="stroke: #A80036; stroke-width: 1.0;"/>
        <polygon fill="#A80036" points="628.368,233.6376,637.422,237.5138,633.3675,233.5691,637.3123,229.5146,628.368,233.6376" style="stroke: #A80036; stroke-width: 1.0;"/>
        <text fill="#000000" font-family="sans-serif" font-size="13" lengthAdjust="spacingAndGlyphs" textLength="191" x="669" y="227.1357">Update status on a specific order</text>
        <path d="M573,246.9346 C573,267.5906 573,297.3096 573,319.2916 " fill="none" style="stroke: #A80036; stroke-width: 1.0;"/>
        <polygon fill="#A80036" points="573,324.4216,577,315.4216,573,319.4216,569,315.4216,573,324.4216" style="stroke: #A80036; stroke-width: 1.0;"/>
        <text fill="#000000" font-family="sans-serif" font-size="13" lengthAdjust="spacingAndGlyphs" textLength="116" x="574" y="291.1357">Go to specific Order</text>
        <path d="M636.948,337.6586 C656.341,337.9596 671.5,341.9526 671.5,349.6406 C671.5,356.6076 659.05,360.5406 642.281,361.4406 " fill="none" style="stroke: #A80036; stroke-width: 1.0;"/>
        <polygon fill="#A80036" points="636.948,361.6226,646.0798,365.3117,641.9451,361.4512,645.8056,357.3164,636.948,361.6226" style="stroke: #A80036; stroke-width: 1.0;"/>
        <text fill="#000000" font-family="sans-serif" font-size="13" lengthAdjust="spacingAndGlyphs" textLength="59" x="677.5" y="355.1357">Edit Order</text>
        <path d="M538.147,374.9186 C523.433,387.3076 507.899,403.7546 500,422.6406 C494.323,436.2126 496.964,452.1046 501.601,465.5006 " fill="none" style="stroke: #A80036; stroke-width: 1.0;"/>
        <polygon fill="#A80036" points="503.388,470.3139,504.0058,460.4845,501.6479,465.6265,496.5059,463.2686,503.388,470.3139" style="stroke: #A80036; stroke-width: 1.0;"/>
        <text fill="#000000" font-family="sans-serif" font-size="13" lengthAdjust="spacingAndGlyphs" textLength="235" x="501" y="437.1357">Show technical drawing for specific order</text>
        <path d="M636.526,366.7696 C670.631,377.9706 711.581,395.7986 741,422.6406 C753.832,434.3486 763.299,451.2826 769.69,465.7866 " fill="none" style="stroke: #A80036; stroke-width: 1.0;"/>
        <polygon fill="#A80036" points="771.74,470.6011,771.8957,460.7535,769.7818,466.0005,764.5347,463.8866,771.74,470.6011" style="stroke: #A80036; stroke-width: 1.0;"/>
        <text fill="#000000" font-family="sans-serif" font-size="13" lengthAdjust="spacingAndGlyphs" textLength="222" x="756" y="437.1357">Show bill of materials for specific order</text>
        <path d="M435.9016,197.0115 C435.8521,196.8704 435.8025,196.7287 435.7527,196.5866 C435.6531,196.3024 435.5528,196.0162 435.4518,195.7282 C435.2497,195.1522 435.0447,194.5688 434.8368,193.9781 C434.4211,192.7967 433.9941,191.5866 433.5564,190.3499 C432.6809,187.8765 431.7626,185.2968 430.8061,182.6285 C423.1545,161.2821 413.065,134.2656 403,110.6406 C399.521,102.4756 395.474,93.7566 391.624,85.7596 " fill="none" style="stroke: #A80036; stroke-width: 1.0;"/>
        <polygon fill="#A80036" points="389.259,80.8846,389.5893,90.7279,391.4418,85.383,396.7867,87.2355,389.259,80.8846" style="stroke: #A80036; stroke-width: 1.0;"/>
        <text fill="#000000" font-family="sans-serif" font-size="13" lengthAdjust="spacingAndGlyphs" textLength="89" x="412" y="125.1357">Through header</text>
        <path d="M320.1424,152.2436 C320.0728,151.9602 320.0022,151.6771 319.9306,151.3943 C319.7873,150.8288 319.64,150.2648 319.4885,149.7024 C318.2765,145.2033 316.7972,140.8111 315,136.6406 C313.13,132.3016 309.662,133.0636 308,128.6406 C305.186,121.1516 304.496,117.8326 308,110.6406 C315.97,94.2826 331.558,81.4206 345.904,72.3596 " fill="none" style="stroke: #A80036; stroke-width: 1.0;"/>
        <polygon fill="#A80036" points="350.307,69.6706,340.5412,70.9472,346.0397,72.2764,344.7105,77.7749,350.307,69.6706" style="stroke: #A80036; stroke-width: 1.0;"/>
        <text fill="#000000" font-family="sans-serif" font-size="13" lengthAdjust="spacingAndGlyphs" textLength="89" x="309" y="125.1357">Through header</text>
        <path d="M331.1336,240.0104 C331.1982,240.1485 331.2632,240.2873 331.3285,240.4267 C331.8508,241.5421 332.3917,242.6974 332.9497,243.8889 C334.0656,246.272 335.2493,248.8 336.487,251.4433 C338.9625,256.7299 341.6538,262.4774 344.4495,268.448 C355.6325,292.3304 368.487,319.7821 375.885,335.5806 " fill="none" style="stroke: #A80036; stroke-width: 1.0;"/>
        <polygon fill="#A80036" points="378.063,340.2326,377.8699,330.3857,375.9431,335.7043,370.6245,333.7775,378.063,340.2326" style="stroke: #A80036; stroke-width: 1.0;"/>
        <path d="M435.8733,232.7193 C435.7751,232.8455 435.6763,232.9728 435.5769,233.101 C435.378,233.3573 435.1767,233.6175 434.973,233.8814 C433.3438,235.9925 431.5649,238.3405 429.6978,240.872 C422.2293,250.9981 413.35,264.0606 407,276.6406 C397.335,295.7876 389.886,319.5536 385.722,334.4126 " fill="none" style="stroke: #A80036; stroke-width: 1.0;"/>
        <polygon fill="#A80036" points="384.339,339.4596,390.5772,331.8383,385.6616,334.6377,382.8621,329.7221,384.339,339.4596" style="stroke: #A80036; stroke-width: 1.0;"/>
        <text fill="#000000" font-family="sans-serif" font-size="13" lengthAdjust="spacingAndGlyphs" textLength="43" x="408" y="291.1357">Log out</text>
        <rect fill="#DDDDDD" height="27.6094" rx="5" ry="5" style="stroke: #000000; stroke-width: 1.0;" width="1160" x="8" y="586.6406"/>
        <text fill="#000000" font-family="sans-serif" font-size="14" lengthAdjust="spacingAndGlyphs" textLength="1148" x="14" y="606.1738">All boxes represents jsp pages. Every jsp page goes to the Frontcontroller servlet which uses javaclasses called commands to do specific operations and navigate to the next jsp page</text>
        <!--
@startuml

Title Navigation  for current Carport project

note top of Employee
Username and role
stored in session
end note

legend bottom center
All boxes represents jsp pages. Every jsp page goes to the Frontcontroller servlet which uses javaclasses called commands to do specific operations and navigate to the next jsp page
end legend

[*] -> index

state Customer #Wheat {
index -> SubmitOrder #Salmon
SubmitOrder - -> OrderConfirmation #Salmon
}

state Employee #Wheat {
index - -> BrowseOrders #DodgerBlue : Login
BrowseOrders - -> BrowseOrders : Update status on a specific order
BrowseOrders - -> OrderInformation #DodgerBlue : Go to specific Order
OrderInformation - -> OrderInformation : Edit Order
OrderInformation - -> techdrawing #DodgerBlue : Show technical drawing for specific order 
OrderInformation - -> billofmaterials #DodgerBlue : Show bill of materials for specific order
}

Employee - -> index : Through header
Customer - -> index : Through header

Customer - -> [*]
Employee - -> [*] : Log out

@enduml

PlantUML version 2017.11(Wed Apr 19 18:18:59 CEST 2017)
(GPL source distribution)
Java Runtime: Java(TM) SE Runtime Environment
JVM: Java HotSpot(TM) 64-Bit Server VM
Java Version: 1.8.0_144-b01
Operating System: Windows 10
OS Version: 10.0
Default Encoding: Cp1252
Language: en
Country: GB
-->
    </g>
</svg>
