<?xml version="1.0" encoding="UTF-8"?><svg xmlns="http://www.w3.org/2000/svg" xmlns:xlink="http://www.w3.org/1999/xlink" contentScriptType="application/ecmascript" contentStyleType="text/css" height="703px" preserveAspectRatio="none" style="width:979px;height:703px;" version="1.1" viewBox="0 0 979 703" width="979px" zoomAndPan="magnify">
    <defs>
        <filter height="300%" id="f156395g7lcxtf" width="300%" x="-1" y="-1">
            <feGaussianBlur result="blurOut" stdDeviation="2.0"/>
            <feColorMatrix in="blurOut" result="blurOut2" type="matrix" values="0 0 0 0 0 0 0 0 0 0 0 0 0 0 0 0 0 0 .4 0"/>
            <feOffset dx="4.0" dy="4.0" in="blurOut2" result="blurOut3"/>
            <feBlend in="SourceGraphic" in2="blurOut3" mode="normal"/>
        </filter>
    </defs>
    <g>
        <text fill="#000000" font-family="sans-serif" font-size="14" font-weight="bold" lengthAdjust="spacingAndGlyphs" textLength="94" x="449" y="24.5332">UpdateStatus</text>
        <line style="stroke: #A80036; stroke-width: 1.0; stroke-dasharray: 5.0,5.0;" x1="74" x2="74" y1="98.2188" y2="634.1953"/>
        <line style="stroke: #A80036; stroke-width: 1.0; stroke-dasharray: 5.0,5.0;" x1="201" x2="201" y1="98.2188" y2="634.1953"/>
        <line style="stroke: #A80036; stroke-width: 1.0; stroke-dasharray: 5.0,5.0;" x1="305" x2="305" y1="98.2188" y2="634.1953"/>
        <line style="stroke: #A80036; stroke-width: 1.0; stroke-dasharray: 5.0,5.0;" x1="409" x2="409" y1="98.2188" y2="634.1953"/>
        <line style="stroke: #A80036; stroke-width: 1.0; stroke-dasharray: 5.0,5.0;" x1="531.5" x2="531.5" y1="98.2188" y2="634.1953"/>
        <line style="stroke: #A80036; stroke-width: 1.0; stroke-dasharray: 5.0,5.0;" x1="602.5" x2="602.5" y1="98.2188" y2="634.1953"/>
        <line style="stroke: #A80036; stroke-width: 1.0; stroke-dasharray: 5.0,5.0;" x1="690.5" x2="690.5" y1="98.2188" y2="634.1953"/>
        <line style="stroke: #A80036; stroke-width: 1.0; stroke-dasharray: 5.0,5.0;" x1="831.5" x2="831.5" y1="98.2188" y2="634.1953"/>
        <line style="stroke: #A80036; stroke-width: 1.0; stroke-dasharray: 5.0,5.0;" x1="950" x2="950" y1="98.2188" y2="634.1953"/>
        <text fill="#000000" font-family="sans-serif" font-size="14" lengthAdjust="spacingAndGlyphs" textLength="126" x="8" y="95.1426">orderinformation.jsp</text>
        <path d="M53.5,52.6094 L53.5,76.6094 M53.5,64.6094 L70.5,64.6094 " fill="#FEFECE" filter="url(#f156395g7lcxtf)" style="stroke: #A80036; stroke-width: 2.0;"/>
        <ellipse cx="82.5" cy="64.6094" fill="#FEFECE" filter="url(#f156395g7lcxtf)" rx="12" ry="12" style="stroke: #A80036; stroke-width: 2.0;"/>
        <text fill="#000000" font-family="sans-serif" font-size="14" lengthAdjust="spacingAndGlyphs" textLength="126" x="8" y="647.7285">orderinformation.jsp</text>
        <path d="M53.5,654.8047 L53.5,678.8047 M53.5,666.8047 L70.5,666.8047 " fill="#FEFECE" filter="url(#f156395g7lcxtf)" style="stroke: #A80036; stroke-width: 2.0;"/>
        <ellipse cx="82.5" cy="666.8047" fill="#FEFECE" filter="url(#f156395g7lcxtf)" rx="12" ry="12" style="stroke: #A80036; stroke-width: 2.0;"/>
        <text fill="#000000" font-family="sans-serif" font-size="14" lengthAdjust="spacingAndGlyphs" textLength="96" x="150" y="95.1426">FrontController</text>
        <ellipse cx="201" cy="64.6094" fill="#FEFECE" filter="url(#f156395g7lcxtf)" rx="12" ry="12" style="stroke: #A80036; stroke-width: 2.0;"/>
        <polygon fill="#A80036" points="197,52.6094,203,47.6094,201,52.6094,203,57.6094,197,52.6094" style="stroke: #A80036; stroke-width: 1.0;"/>
        <text fill="#000000" font-family="sans-serif" font-size="14" lengthAdjust="spacingAndGlyphs" textLength="96" x="150" y="647.7285">FrontController</text>
        <ellipse cx="201" cy="666.8047" fill="#FEFECE" filter="url(#f156395g7lcxtf)" rx="12" ry="12" style="stroke: #A80036; stroke-width: 2.0;"/>
        <polygon fill="#A80036" points="197,654.8047,203,649.8047,201,654.8047,203,659.8047,197,654.8047" style="stroke: #A80036; stroke-width: 1.0;"/>
        <rect fill="#FEFECE" filter="url(#f156395g7lcxtf)" height="31.6094" style="stroke: #A80036; stroke-width: 1.5;" width="78" x="266" y="57.6094"/>
        <rect fill="#FEFECE" filter="url(#f156395g7lcxtf)" height="31.6094" style="stroke: #A80036; stroke-width: 1.5;" width="78" x="262" y="61.6094"/>
        <text fill="#000000" font-family="sans-serif" font-size="14" lengthAdjust="spacingAndGlyphs" textLength="64" x="269" y="83.1426">Command</text>
        <rect fill="#FEFECE" filter="url(#f156395g7lcxtf)" height="31.6094" style="stroke: #A80036; stroke-width: 1.5;" width="78" x="266" y="633.1953"/>
        <rect fill="#FEFECE" filter="url(#f156395g7lcxtf)" height="31.6094" style="stroke: #A80036; stroke-width: 1.5;" width="78" x="262" y="637.1953"/>
        <text fill="#000000" font-family="sans-serif" font-size="14" lengthAdjust="spacingAndGlyphs" textLength="64" x="269" y="658.7285">Command</text>
        <rect fill="#FEFECE" filter="url(#f156395g7lcxtf)" height="31.6094" style="stroke: #A80036; stroke-width: 1.5;" width="99" x="358" y="61.6094"/>
        <text fill="#000000" font-family="sans-serif" font-size="14" lengthAdjust="spacingAndGlyphs" textLength="85" x="365" y="83.1426">UpdateStatus</text>
        <rect fill="#FEFECE" filter="url(#f156395g7lcxtf)" height="31.6094" style="stroke: #A80036; stroke-width: 1.5;" width="99" x="358" y="633.1953"/>
        <text fill="#000000" font-family="sans-serif" font-size="14" lengthAdjust="spacingAndGlyphs" textLength="85" x="365" y="654.7285">UpdateStatus</text>
        <rect fill="#FEFECE" filter="url(#f156395g7lcxtf)" height="31.6094" style="stroke: #A80036; stroke-width: 1.5;" width="64" x="497.5" y="61.6094"/>
        <text fill="#000000" font-family="sans-serif" font-size="14" lengthAdjust="spacingAndGlyphs" textLength="50" x="504.5" y="83.1426">Session</text>
        <rect fill="#FEFECE" filter="url(#f156395g7lcxtf)" height="31.6094" style="stroke: #A80036; stroke-width: 1.5;" width="64" x="497.5" y="633.1953"/>
        <text fill="#000000" font-family="sans-serif" font-size="14" lengthAdjust="spacingAndGlyphs" textLength="50" x="504.5" y="654.7285">Session</text>
        <rect fill="#FEFECE" filter="url(#f156395g7lcxtf)" height="31.6094" style="stroke: #A80036; stroke-width: 1.5;" width="51" x="575.5" y="61.6094"/>
        <text fill="#000000" font-family="sans-serif" font-size="14" lengthAdjust="spacingAndGlyphs" textLength="37" x="582.5" y="83.1426">Order</text>
        <rect fill="#FEFECE" filter="url(#f156395g7lcxtf)" height="31.6094" style="stroke: #A80036; stroke-width: 1.5;" width="51" x="575.5" y="633.1953"/>
        <text fill="#000000" font-family="sans-serif" font-size="14" lengthAdjust="spacingAndGlyphs" textLength="37" x="582.5" y="654.7285">Order</text>
        <rect fill="#FEFECE" filter="url(#f156395g7lcxtf)" height="31.6094" style="stroke: #A80036; stroke-width: 1.5;" width="96" x="640.5" y="61.6094"/>
        <text fill="#000000" font-family="sans-serif" font-size="14" lengthAdjust="spacingAndGlyphs" textLength="82" x="647.5" y="83.1426">LogicFacade</text>
        <rect fill="#FEFECE" filter="url(#f156395g7lcxtf)" height="31.6094" style="stroke: #A80036; stroke-width: 1.5;" width="96" x="640.5" y="633.1953"/>
        <text fill="#000000" font-family="sans-serif" font-size="14" lengthAdjust="spacingAndGlyphs" textLength="82" x="647.5" y="654.7285">LogicFacade</text>
        <rect fill="#FEFECE" filter="url(#f156395g7lcxtf)" height="31.6094" style="stroke: #A80036; stroke-width: 1.5;" width="130" x="764.5" y="61.6094"/>
        <text fill="#000000" font-family="sans-serif" font-size="14" lengthAdjust="spacingAndGlyphs" textLength="116" x="771.5" y="83.1426">DataAccessObject</text>
        <rect fill="#FEFECE" filter="url(#f156395g7lcxtf)" height="31.6094" style="stroke: #A80036; stroke-width: 1.5;" width="130" x="764.5" y="633.1953"/>
        <text fill="#000000" font-family="sans-serif" font-size="14" lengthAdjust="spacingAndGlyphs" textLength="116" x="771.5" y="654.7285">DataAccessObject</text>
        <text fill="#000000" font-family="sans-serif" font-size="14" lengthAdjust="spacingAndGlyphs" textLength="61" x="917" y="95.1426">Database</text>
        <path d="M932.5,44.6094 C932.5,34.6094 950.5,34.6094 950.5,34.6094 C950.5,34.6094 968.5,34.6094 968.5,44.6094 L968.5,70.6094 C968.5,80.6094 950.5,80.6094 950.5,80.6094 C950.5,80.6094 932.5,80.6094 932.5,70.6094 L932.5,44.6094 " fill="#FEFECE" filter="url(#f156395g7lcxtf)" style="stroke: #000000; stroke-width: 1.5;"/>
        <path d="M932.5,44.6094 C932.5,54.6094 950.5,54.6094 950.5,54.6094 C950.5,54.6094 968.5,54.6094 968.5,44.6094 " fill="none" style="stroke: #000000; stroke-width: 1.5;"/>
        <text fill="#000000" font-family="sans-serif" font-size="14" lengthAdjust="spacingAndGlyphs" textLength="61" x="917" y="647.7285">Database</text>
        <path d="M932.5,660.8047 C932.5,650.8047 950.5,650.8047 950.5,650.8047 C950.5,650.8047 968.5,650.8047 968.5,660.8047 L968.5,686.8047 C968.5,696.8047 950.5,696.8047 950.5,696.8047 C950.5,696.8047 932.5,696.8047 932.5,686.8047 L932.5,660.8047 " fill="#FEFECE" filter="url(#f156395g7lcxtf)" style="stroke: #000000; stroke-width: 1.5;"/>
        <path d="M932.5,660.8047 C932.5,670.8047 950.5,670.8047 950.5,670.8047 C950.5,670.8047 968.5,670.8047 968.5,660.8047 " fill="none" style="stroke: #000000; stroke-width: 1.5;"/>
        <polygon fill="#A80036" points="189,126.2188,199,130.2188,189,134.2188,193,130.2188" style="stroke: #A80036; stroke-width: 1.0;"/>
        <line style="stroke: #A80036; stroke-width: 1.0;" x1="74" x2="195" y1="130.2188" y2="130.2188"/>
        <text fill="#000000" font-family="sans-serif" font-size="13" lengthAdjust="spacingAndGlyphs" textLength="70" x="81" y="125.7139">Submit form</text>
        <polygon fill="#A80036" points="293,156.5703,303,160.5703,293,164.5703,297,160.5703" style="stroke: #A80036; stroke-width: 1.0;"/>
        <line style="stroke: #A80036; stroke-width: 1.0;" x1="201" x2="299" y1="160.5703" y2="160.5703"/>
        <text fill="#000000" font-family="sans-serif" font-size="13" lengthAdjust="spacingAndGlyphs" textLength="33" x="208" y="156.0654">from()</text>
        <polygon fill="#A80036" points="397.5,186.9219,407.5,190.9219,397.5,194.9219,401.5,190.9219" style="stroke: #A80036; stroke-width: 1.0;"/>
        <line style="stroke: #A80036; stroke-width: 1.0;" x1="201" x2="403.5" y1="190.9219" y2="190.9219"/>
        <text fill="#000000" font-family="sans-serif" font-size="13" lengthAdjust="spacingAndGlyphs" textLength="54" x="208" y="186.417">execute()</text>
        <polygon fill="#A80036" points="678.5,217.2734,688.5,221.2734,678.5,225.2734,682.5,221.2734" style="stroke: #A80036; stroke-width: 1.0;"/>
        <line style="stroke: #A80036; stroke-width: 1.0;" x1="409.5" x2="684.5" y1="221.2734" y2="221.2734"/>
        <text fill="#000000" font-family="sans-serif" font-size="13" lengthAdjust="spacingAndGlyphs" textLength="58" x="416.5" y="216.7686">getOrder()</text>
        <polygon fill="#A80036" points="819.5,247.625,829.5,251.625,819.5,255.625,823.5,251.625" style="stroke: #A80036; stroke-width: 1.0;"/>
        <line style="stroke: #A80036; stroke-width: 1.0;" x1="690.5" x2="825.5" y1="251.625" y2="251.625"/>
        <text fill="#000000" font-family="sans-serif" font-size="13" lengthAdjust="spacingAndGlyphs" textLength="58" x="697.5" y="247.1201">getOrder()</text>
        <polygon fill="#A80036" points="938.5,277.9766,948.5,281.9766,938.5,285.9766,942.5,281.9766" style="stroke: #A80036; stroke-width: 1.0;"/>
        <line style="stroke: #A80036; stroke-width: 1.0;" x1="831.5" x2="944.5" y1="281.9766" y2="281.9766"/>
        <text fill="#000000" font-family="sans-serif" font-size="13" lengthAdjust="spacingAndGlyphs" textLength="89" x="838.5" y="277.4717">executeQuery()</text>
        <polygon fill="#A80036" points="842.5,308.3281,832.5,312.3281,842.5,316.3281,838.5,312.3281" style="stroke: #A80036; stroke-width: 1.0;"/>
        <line style="stroke: #A80036; stroke-width: 1.0; stroke-dasharray: 2.0,2.0;" x1="836.5" x2="949.5" y1="312.3281" y2="312.3281"/>
        <text fill="#000000" font-family="sans-serif" font-size="13" lengthAdjust="spacingAndGlyphs" textLength="32" x="848.5" y="307.8232">Order</text>
        <polygon fill="#A80036" points="701.5,338.6797,691.5,342.6797,701.5,346.6797,697.5,342.6797" style="stroke: #A80036; stroke-width: 1.0;"/>
        <line style="stroke: #A80036; stroke-width: 1.0; stroke-dasharray: 2.0,2.0;" x1="695.5" x2="830.5" y1="342.6797" y2="342.6797"/>
        <text fill="#000000" font-family="sans-serif" font-size="13" lengthAdjust="spacingAndGlyphs" textLength="32" x="707.5" y="338.1748">Order</text>
        <polygon fill="#A80036" points="420.5,369.0313,410.5,373.0313,420.5,377.0313,416.5,373.0313" style="stroke: #A80036; stroke-width: 1.0;"/>
        <line style="stroke: #A80036; stroke-width: 1.0; stroke-dasharray: 2.0,2.0;" x1="414.5" x2="689.5" y1="373.0313" y2="373.0313"/>
        <text fill="#000000" font-family="sans-serif" font-size="13" lengthAdjust="spacingAndGlyphs" textLength="32" x="426.5" y="368.5264">Order</text>
        <polygon fill="#A80036" points="591,399.3828,601,403.3828,591,407.3828,595,403.3828" style="stroke: #A80036; stroke-width: 1.0;"/>
        <line style="stroke: #A80036; stroke-width: 1.0;" x1="409.5" x2="597" y1="403.3828" y2="403.3828"/>
        <text fill="#000000" font-family="sans-serif" font-size="13" lengthAdjust="spacingAndGlyphs" textLength="64" x="416.5" y="398.8779">setStatus()</text>
        <polygon fill="#A80036" points="678.5,429.7344,688.5,433.7344,678.5,437.7344,682.5,433.7344" style="stroke: #A80036; stroke-width: 1.0;"/>
        <line style="stroke: #A80036; stroke-width: 1.0;" x1="409.5" x2="684.5" y1="433.7344" y2="433.7344"/>
        <text fill="#000000" font-family="sans-serif" font-size="13" lengthAdjust="spacingAndGlyphs" textLength="117" x="416.5" y="429.2295">updateOrderStatus()</text>
        <polygon fill="#A80036" points="819.5,460.0859,829.5,464.0859,819.5,468.0859,823.5,464.0859" style="stroke: #A80036; stroke-width: 1.0;"/>
        <line style="stroke: #A80036; stroke-width: 1.0;" x1="690.5" x2="825.5" y1="464.0859" y2="464.0859"/>
        <text fill="#000000" font-family="sans-serif" font-size="13" lengthAdjust="spacingAndGlyphs" textLength="117" x="697.5" y="459.5811">updateOrderStatus()</text>
        <polygon fill="#A80036" points="938.5,490.4375,948.5,494.4375,938.5,498.4375,942.5,494.4375" style="stroke: #A80036; stroke-width: 1.0;"/>
        <line style="stroke: #A80036; stroke-width: 1.0;" x1="831.5" x2="944.5" y1="494.4375" y2="494.4375"/>
        <text fill="#000000" font-family="sans-serif" font-size="13" lengthAdjust="spacingAndGlyphs" textLength="95" x="838.5" y="489.9326">executeUpdate()</text>
        <polygon fill="#A80036" points="519.5,520.7891,529.5,524.7891,519.5,528.7891,523.5,524.7891" style="stroke: #A80036; stroke-width: 1.0;"/>
        <line style="stroke: #A80036; stroke-width: 1.0;" x1="409.5" x2="525.5" y1="524.7891" y2="524.7891"/>
        <text fill="#000000" font-family="sans-serif" font-size="13" lengthAdjust="spacingAndGlyphs" textLength="98" x="416.5" y="520.2842">removeAttribute()</text>
        <polygon fill="#A80036" points="519.5,551.1406,529.5,555.1406,519.5,559.1406,523.5,555.1406" style="stroke: #A80036; stroke-width: 1.0;"/>
        <line style="stroke: #A80036; stroke-width: 1.0;" x1="409.5" x2="525.5" y1="555.1406" y2="555.1406"/>
        <text fill="#000000" font-family="sans-serif" font-size="13" lengthAdjust="spacingAndGlyphs" textLength="75" x="416.5" y="550.6357">setAttribute()</text>
        <polygon fill="#A80036" points="212,581.4922,202,585.4922,212,589.4922,208,585.4922" style="stroke: #A80036; stroke-width: 1.0;"/>
        <line style="stroke: #A80036; stroke-width: 1.0; stroke-dasharray: 2.0,2.0;" x1="206" x2="408.5" y1="585.4922" y2="585.4922"/>
        <text fill="#000000" font-family="sans-serif" font-size="13" lengthAdjust="spacingAndGlyphs" textLength="89" x="218" y="580.9873">"billofmaterials"</text>
        <polygon fill="#A80036" points="85,611.8438,75,615.8438,85,619.8438,81,615.8438" style="stroke: #A80036; stroke-width: 1.0;"/>
        <line style="stroke: #A80036; stroke-width: 1.0;" x1="79" x2="200" y1="615.8438" y2="615.8438"/>
        <text fill="#000000" font-family="sans-serif" font-size="13" lengthAdjust="spacingAndGlyphs" textLength="49" x="91" y="611.3389">forward()</text>
        <!--
@startuml

title UpdateStatus
boundary orderinformation.jsp
control FrontController
collections Command
participant UpdateStatus
participant Session
participant Order
participant LogicFacade as LF
participant DataAccessObject as DAO
database Database as DB

orderinformation.jsp -> FrontController: Submit form
FrontController -> Command: from()
FrontController -> UpdateStatus: execute()
UpdateStatus -> LF: getOrder()
LF -> DAO: getOrder()
DAO -> DB: executeQuery()
DB - -> DAO: Order
DAO - -> LF: Order
LF - -> UpdateStatus: Order
UpdateStatus -> Order: setStatus()
UpdateStatus -> LF: updateOrderStatus()
LF -> DAO: updateOrderStatus()
DAO -> DB: executeUpdate()
UpdateStatus -> Session: removeAttribute()
UpdateStatus -> Session: setAttribute()
UpdateStatus - -> FrontController: "billofmaterials"
FrontController -> orderinformation.jsp: forward()

@enduml

PlantUML version 2017.11(Wed Apr 19 18:18:59 CEST 2017)
(GPL source distribution)
Java Runtime: Java(TM) SE Runtime Environment
JVM: Java HotSpot(TM) 64-Bit Server VM
Java Version: 1.8.0_144-b01
Operating System: Windows 10
OS Version: 10.0
Default Encoding: Cp1252
Language: en
Country: GB
-->
    </g>
</svg>
